<svg width="773" height="626" viewBox="0 0 773 626" fill="none" xmlns="http://www.w3.org/2000/svg">
<path d="M286.512 255.792C282.912 255.792 279.912 255.144 277.512 253.848C275.112 252.504 273.288 250.512 272.04 247.872C270.84 245.184 270.144 241.776 269.952 237.648L280.176 235.92C280.272 238.32 280.512 240.336 280.896 241.968C281.328 243.552 281.952 244.752 282.768 245.568C283.632 246.336 284.688 246.72 285.936 246.72C287.472 246.72 288.504 246.24 289.032 245.28C289.608 244.32 289.896 243.216 289.896 241.968C289.896 239.52 289.296 237.48 288.096 235.848C286.944 234.168 285.408 232.488 283.488 230.808L277.44 225.552C275.28 223.728 273.504 221.664 272.112 219.36C270.768 217.056 270.096 214.224 270.096 210.864C270.096 206.064 271.488 202.392 274.272 199.848C277.104 197.256 280.968 195.96 285.864 195.96C288.792 195.96 291.192 196.44 293.064 197.4C294.936 198.36 296.376 199.656 297.384 201.288C298.44 202.872 299.16 204.624 299.544 206.544C299.976 208.416 300.24 210.288 300.336 212.16L290.184 213.672C290.088 211.896 289.92 210.336 289.68 208.992C289.488 207.648 289.056 206.592 288.384 205.824C287.76 205.056 286.8 204.672 285.504 204.672C284.112 204.672 283.08 205.2 282.408 206.256C281.736 207.264 281.4 208.392 281.4 209.64C281.4 211.704 281.856 213.408 282.768 214.752C283.728 216.048 285.024 217.416 286.656 218.856L292.56 224.04C295.008 226.152 297.096 228.576 298.824 231.312C300.6 234 301.488 237.336 301.488 241.32C301.488 244.056 300.864 246.528 299.616 248.736C298.368 250.944 296.616 252.672 294.36 253.92C292.152 255.168 289.536 255.792 286.512 255.792ZM306.736 255V244.416H317.104V255H306.736ZM342.478 255V196.68H354.358V221.304L364.87 196.68H376.39L365.446 222.888L377.182 255H365.23L356.23 228.864L354.358 232.176V255H342.478ZM394.733 255.72C391.757 255.72 389.213 255.192 387.101 254.136C384.989 253.032 383.381 251.448 382.277 249.384C381.221 247.32 380.693 244.752 380.693 241.68V226.704C380.693 223.632 381.221 221.064 382.277 219C383.381 216.936 384.989 215.376 387.101 214.32C389.213 213.216 391.757 212.664 394.733 212.664C397.709 212.664 400.253 213.216 402.365 214.32C404.477 215.376 406.085 216.936 407.189 219C408.293 221.064 408.845 223.632 408.845 226.704V241.68C408.845 244.752 408.293 247.32 407.189 249.384C406.085 251.448 404.477 253.032 402.365 254.136C400.253 255.192 397.709 255.72 394.733 255.72ZM394.805 248.376C395.717 248.376 396.413 248.136 396.893 247.656C397.373 247.128 397.685 246.432 397.829 245.568C397.973 244.656 398.045 243.624 398.045 242.472V225.984C398.045 224.784 397.973 223.752 397.829 222.888C397.685 222.024 397.373 221.328 396.893 220.8C396.413 220.272 395.717 220.008 394.805 220.008C393.893 220.008 393.197 220.272 392.717 220.8C392.237 221.328 391.901 222.024 391.709 222.888C391.565 223.752 391.493 224.784 391.493 225.984V242.472C391.493 243.624 391.565 244.656 391.709 245.568C391.901 246.432 392.237 247.128 392.717 247.656C393.197 248.136 393.893 248.376 394.805 248.376ZM415.591 255V213.384H426.463V220.08C427.855 217.632 429.223 215.832 430.567 214.68C431.959 213.48 433.591 212.88 435.463 212.88C435.799 212.88 436.087 212.904 436.327 212.952C436.615 212.952 436.879 213 437.119 213.096V224.04C436.591 223.8 435.991 223.608 435.319 223.464C434.647 223.272 433.951 223.176 433.231 223.176C431.887 223.176 430.663 223.536 429.559 224.256C428.455 224.928 427.423 225.912 426.463 227.208V255H415.591ZM455.2 255.72C452.128 255.72 449.56 255.168 447.496 254.064C445.432 252.912 443.872 251.256 442.816 249.096C441.76 246.888 441.232 244.248 441.232 241.176V227.208C441.232 224.04 441.76 221.4 442.816 219.288C443.872 217.128 445.456 215.496 447.568 214.392C449.68 213.24 452.224 212.664 455.2 212.664C458.368 212.664 460.936 213.24 462.904 214.392C464.872 215.544 466.312 217.224 467.224 219.432C468.184 221.64 468.664 224.328 468.664 227.496V234.768H451.96V242.832C451.96 244.032 452.08 245.016 452.32 245.784C452.608 246.552 452.992 247.104 453.472 247.44C453.952 247.728 454.552 247.872 455.272 247.872C455.944 247.872 456.52 247.728 457 247.44C457.528 247.104 457.912 246.6 458.152 245.928C458.392 245.256 458.512 244.368 458.512 243.264V239.304H468.592V242.76C468.592 246.984 467.44 250.2 465.136 252.408C462.832 254.616 459.52 255.72 455.2 255.72ZM451.96 229.584H458.512V225.48C458.512 224.28 458.392 223.32 458.152 222.6C457.912 221.832 457.528 221.304 457 221.016C456.52 220.68 455.896 220.512 455.128 220.512C454.408 220.512 453.808 220.68 453.328 221.016C452.896 221.352 452.56 221.952 452.32 222.816C452.08 223.632 451.96 224.808 451.96 226.344V229.584ZM483.493 255.72C481.525 255.72 479.821 255.216 478.381 254.208C476.989 253.2 475.933 251.928 475.213 250.392C474.493 248.856 474.133 247.272 474.133 245.64C474.133 243.048 474.637 240.864 475.645 239.088C476.653 237.312 477.973 235.824 479.605 234.624C481.237 233.424 483.061 232.392 485.077 231.528C487.093 230.664 489.109 229.872 491.125 229.152V225.264C491.125 224.352 491.053 223.56 490.909 222.888C490.765 222.216 490.477 221.712 490.045 221.376C489.661 220.992 489.085 220.8 488.317 220.8C487.549 220.8 486.949 220.968 486.517 221.304C486.133 221.592 485.845 222.048 485.653 222.672C485.509 223.248 485.413 223.896 485.365 224.616L485.149 227.496L474.853 227.064C475.093 222.168 476.365 218.544 478.669 216.192C481.021 213.84 484.549 212.664 489.253 212.664C493.477 212.664 496.597 213.84 498.613 216.192C500.629 218.496 501.637 221.544 501.637 225.336V244.704C501.637 246.336 501.661 247.8 501.709 249.096C501.805 250.344 501.901 251.472 501.997 252.48C502.141 253.44 502.261 254.28 502.357 255H492.565C492.421 253.944 492.253 252.792 492.061 251.544C491.869 250.296 491.725 249.456 491.629 249.024C491.149 250.752 490.237 252.312 488.893 253.704C487.549 255.048 485.749 255.72 483.493 255.72ZM487.453 248.016C487.981 248.016 488.485 247.896 488.965 247.656C489.445 247.416 489.853 247.104 490.189 246.72C490.573 246.336 490.885 245.976 491.125 245.64V234.192C490.117 234.816 489.181 235.44 488.317 236.064C487.453 236.64 486.709 237.288 486.085 238.008C485.461 238.728 484.981 239.52 484.645 240.384C484.309 241.248 484.141 242.232 484.141 243.336C484.141 244.776 484.429 245.928 485.005 246.792C485.581 247.608 486.397 248.016 487.453 248.016ZM508.682 255V213.384H519.554V217.56C521.042 216.072 522.602 214.896 524.234 214.032C525.914 213.12 527.69 212.664 529.562 212.664C531.29 212.664 532.682 213.096 533.738 213.96C534.842 214.824 535.658 215.976 536.186 217.416C536.714 218.808 536.978 220.392 536.978 222.168V255H526.178V223.968C526.178 222.816 525.986 221.952 525.602 221.376C525.266 220.8 524.594 220.512 523.586 220.512C523.01 220.512 522.362 220.68 521.642 221.016C520.97 221.304 520.274 221.712 519.554 222.24V255H508.682ZM271.392 362V303.68H285.648C290.592 303.68 294.432 304.328 297.168 305.624C299.952 306.872 301.92 308.864 303.072 311.6C304.224 314.288 304.8 317.744 304.8 321.968V343.208C304.8 347.528 304.224 351.08 303.072 353.864C301.92 356.648 299.976 358.712 297.24 360.056C294.552 361.352 290.784 362 285.936 362H271.392ZM283.272 353.72H285.792C288 353.72 289.56 353.384 290.472 352.712C291.432 351.992 292.032 350.96 292.272 349.616C292.512 348.224 292.632 346.52 292.632 344.504V320.456C292.632 318.44 292.464 316.832 292.128 315.632C291.84 314.384 291.216 313.472 290.256 312.896C289.344 312.32 287.832 312.032 285.72 312.032H283.272V353.72ZM325.121 362.72C322.049 362.72 319.481 362.168 317.417 361.064C315.353 359.912 313.793 358.256 312.737 356.096C311.681 353.888 311.153 351.248 311.153 348.176V334.208C311.153 331.04 311.681 328.4 312.737 326.288C313.793 324.128 315.377 322.496 317.489 321.392C319.601 320.24 322.145 319.664 325.121 319.664C328.289 319.664 330.857 320.24 332.825 321.392C334.793 322.544 336.233 324.224 337.145 326.432C338.105 328.64 338.585 331.328 338.585 334.496V341.768H321.881V349.832C321.881 351.032 322.001 352.016 322.241 352.784C322.529 353.552 322.913 354.104 323.393 354.44C323.873 354.728 324.473 354.872 325.193 354.872C325.865 354.872 326.441 354.728 326.921 354.44C327.449 354.104 327.833 353.6 328.073 352.928C328.313 352.256 328.433 351.368 328.433 350.264V346.304H338.513V349.76C338.513 353.984 337.361 357.2 335.057 359.408C332.753 361.616 329.441 362.72 325.121 362.72ZM321.881 336.584H328.433V332.48C328.433 331.28 328.313 330.32 328.073 329.6C327.833 328.832 327.449 328.304 326.921 328.016C326.441 327.68 325.817 327.512 325.049 327.512C324.329 327.512 323.729 327.68 323.249 328.016C322.817 328.352 322.481 328.952 322.241 329.816C322.001 330.632 321.881 331.808 321.881 333.344V336.584ZM345.135 362V320.384H355.719V323.84C357.207 322.304 358.767 321.224 360.399 320.6C362.079 319.928 363.783 319.592 365.511 319.592C367.191 319.592 368.631 320.024 369.831 320.888C371.079 321.704 371.991 322.952 372.567 324.632C374.199 322.808 375.903 321.512 377.679 320.744C379.455 319.976 381.279 319.592 383.151 319.592C384.687 319.592 386.055 319.976 387.255 320.744C388.455 321.512 389.391 322.64 390.063 324.128C390.735 325.616 391.071 327.44 391.071 329.6V362H380.487V330.68C380.487 329.336 380.247 328.4 379.767 327.872C379.335 327.296 378.663 327.008 377.751 327.008C377.175 327.008 376.479 327.176 375.663 327.512C374.847 327.848 374.079 328.328 373.359 328.952C373.359 329.048 373.359 329.144 373.359 329.24C373.359 329.336 373.359 329.456 373.359 329.6V362H362.919V330.68C362.919 329.336 362.679 328.4 362.199 327.872C361.719 327.296 361.023 327.008 360.111 327.008C359.487 327.008 358.767 327.176 357.951 327.512C357.183 327.848 356.439 328.328 355.719 328.952V362H345.135ZM411.397 362.72C408.421 362.72 405.877 362.192 403.765 361.136C401.653 360.032 400.045 358.448 398.941 356.384C397.885 354.32 397.357 351.752 397.357 348.68V333.704C397.357 330.632 397.885 328.064 398.941 326C400.045 323.936 401.653 322.376 403.765 321.32C405.877 320.216 408.421 319.664 411.397 319.664C414.373 319.664 416.917 320.216 419.029 321.32C421.141 322.376 422.749 323.936 423.853 326C424.957 328.064 425.509 330.632 425.509 333.704V348.68C425.509 351.752 424.957 354.32 423.853 356.384C422.749 358.448 421.141 360.032 419.029 361.136C416.917 362.192 414.373 362.72 411.397 362.72ZM411.469 355.376C412.381 355.376 413.077 355.136 413.557 354.656C414.037 354.128 414.349 353.432 414.493 352.568C414.637 351.656 414.709 350.624 414.709 349.472V332.984C414.709 331.784 414.637 330.752 414.493 329.888C414.349 329.024 414.037 328.328 413.557 327.8C413.077 327.272 412.381 327.008 411.469 327.008C410.557 327.008 409.861 327.272 409.381 327.8C408.901 328.328 408.565 329.024 408.373 329.888C408.229 330.752 408.157 331.784 408.157 332.984V349.472C408.157 350.624 408.229 351.656 408.373 352.568C408.565 353.432 408.901 354.128 409.381 354.656C409.861 355.136 410.557 355.376 411.469 355.376ZM445.071 376.112C442.047 376.112 439.407 375.8 437.151 375.176C434.943 374.552 433.215 373.616 431.967 372.368C430.719 371.168 430.095 369.608 430.095 367.688C430.095 366.392 430.359 365.216 430.887 364.16C431.463 363.152 432.231 362.264 433.191 361.496C434.199 360.728 435.279 360.056 436.431 359.48C434.751 359 433.431 358.256 432.471 357.248C431.559 356.24 431.103 354.944 431.103 353.36C431.103 351.68 431.511 350.24 432.327 349.04C433.143 347.84 434.271 346.616 435.711 345.368C434.271 344.168 433.191 342.68 432.471 340.904C431.751 339.128 431.391 336.896 431.391 334.208C431.391 331.088 431.943 328.448 433.047 326.288C434.151 324.128 435.759 322.496 437.871 321.392C440.031 320.24 442.623 319.664 445.647 319.664C447.807 319.664 449.679 319.976 451.263 320.6C452.847 321.176 454.167 322.04 455.223 323.192C455.703 322.472 456.399 321.728 457.311 320.96C458.223 320.144 459.255 319.448 460.407 318.872L461.847 318.224L464.439 323.696C463.959 323.84 463.287 324.08 462.423 324.416C461.607 324.752 460.767 325.112 459.903 325.496C459.087 325.88 458.391 326.24 457.815 326.576C458.295 327.584 458.679 328.784 458.967 330.176C459.255 331.568 459.399 332.96 459.399 334.352C459.399 337.28 458.895 339.824 457.887 341.984C456.879 344.144 455.367 345.8 453.351 346.952C451.335 348.104 448.767 348.68 445.647 348.68C444.447 348.68 443.295 348.584 442.191 348.392C441.135 348.2 440.127 347.96 439.167 347.672C438.879 348.056 438.615 348.488 438.375 348.968C438.183 349.4 438.087 349.856 438.087 350.336C438.087 350.912 438.351 351.368 438.879 351.704C439.455 352.04 440.463 352.28 441.903 352.424L451.911 353.504C455.415 353.888 457.983 355.016 459.615 356.888C461.295 358.712 462.135 361.16 462.135 364.232C462.135 366.776 461.559 368.936 460.407 370.712C459.255 372.488 457.407 373.832 454.863 374.744C452.367 375.656 449.103 376.112 445.071 376.112ZM446.367 368.12C449.007 368.12 451.023 367.88 452.415 367.4C453.807 366.92 454.503 365.984 454.503 364.592C454.503 363.92 454.311 363.344 453.927 362.864C453.591 362.432 452.967 362.072 452.055 361.784C451.191 361.496 449.967 361.28 448.383 361.136L440.895 360.416C440.415 360.8 439.983 361.208 439.599 361.64C439.215 362.072 438.903 362.528 438.663 363.008C438.423 363.488 438.303 364.016 438.303 364.592C438.303 365.744 438.903 366.608 440.103 367.184C441.351 367.808 443.439 368.12 446.367 368.12ZM445.647 342.056C446.415 342.056 447.039 341.912 447.519 341.624C447.999 341.336 448.359 340.88 448.599 340.256C448.839 339.632 449.007 338.816 449.103 337.808C449.199 336.8 449.247 335.6 449.247 334.208C449.247 332.816 449.199 331.64 449.103 330.68C449.007 329.672 448.839 328.856 448.599 328.232C448.359 327.56 447.999 327.08 447.519 326.792C447.039 326.504 446.415 326.36 445.647 326.36C444.927 326.36 444.303 326.504 443.775 326.792C443.295 327.08 442.935 327.536 442.695 328.16C442.455 328.784 442.287 329.6 442.191 330.608C442.095 331.616 442.047 332.816 442.047 334.208C442.047 335.552 442.095 336.728 442.191 337.736C442.287 338.696 442.455 339.512 442.695 340.184C442.935 340.808 443.295 341.288 443.775 341.624C444.255 341.912 444.879 342.056 445.647 342.056ZM467.341 362V320.384H478.213V327.08C479.605 324.632 480.973 322.832 482.317 321.68C483.709 320.48 485.341 319.88 487.213 319.88C487.549 319.88 487.837 319.904 488.077 319.952C488.365 319.952 488.629 320 488.869 320.096V331.04C488.341 330.8 487.741 330.608 487.069 330.464C486.397 330.272 485.701 330.176 484.981 330.176C483.637 330.176 482.413 330.536 481.309 331.256C480.205 331.928 479.173 332.912 478.213 334.208V362H467.341ZM501.985 362.72C500.017 362.72 498.313 362.216 496.873 361.208C495.481 360.2 494.425 358.928 493.705 357.392C492.985 355.856 492.625 354.272 492.625 352.64C492.625 350.048 493.129 347.864 494.137 346.088C495.145 344.312 496.465 342.824 498.097 341.624C499.729 340.424 501.553 339.392 503.569 338.528C505.585 337.664 507.601 336.872 509.617 336.152V332.264C509.617 331.352 509.545 330.56 509.401 329.888C509.257 329.216 508.969 328.712 508.537 328.376C508.153 327.992 507.577 327.8 506.809 327.8C506.041 327.8 505.441 327.968 505.009 328.304C504.625 328.592 504.337 329.048 504.145 329.672C504.001 330.248 503.905 330.896 503.857 331.616L503.641 334.496L493.345 334.064C493.585 329.168 494.857 325.544 497.161 323.192C499.513 320.84 503.041 319.664 507.745 319.664C511.969 319.664 515.089 320.84 517.105 323.192C519.121 325.496 520.129 328.544 520.129 332.336V351.704C520.129 353.336 520.153 354.8 520.201 356.096C520.297 357.344 520.393 358.472 520.489 359.48C520.633 360.44 520.753 361.28 520.849 362H511.057C510.913 360.944 510.745 359.792 510.553 358.544C510.361 357.296 510.217 356.456 510.121 356.024C509.641 357.752 508.729 359.312 507.385 360.704C506.041 362.048 504.241 362.72 501.985 362.72ZM505.945 355.016C506.473 355.016 506.977 354.896 507.457 354.656C507.937 354.416 508.345 354.104 508.681 353.72C509.065 353.336 509.377 352.976 509.617 352.64V341.192C508.609 341.816 507.673 342.44 506.809 343.064C505.945 343.64 505.201 344.288 504.577 345.008C503.953 345.728 503.473 346.52 503.137 347.384C502.801 348.248 502.633 349.232 502.633 350.336C502.633 351.776 502.921 352.928 503.497 353.792C504.073 354.608 504.889 355.016 505.945 355.016ZM527.174 375.68V320.384H538.046V323.48C539.342 322.28 540.734 321.344 542.222 320.672C543.758 320 545.294 319.664 546.83 319.664C548.51 319.664 549.926 320.048 551.078 320.816C552.23 321.536 553.166 322.52 553.886 323.768C554.606 325.016 555.11 326.408 555.398 327.944C555.686 329.48 555.83 331.04 555.83 332.624V348.896C555.83 351.584 555.494 353.96 554.822 356.024C554.15 358.088 553.118 359.72 551.726 360.92C550.382 362.12 548.63 362.72 546.47 362.72C544.982 362.72 543.518 362.36 542.078 361.64C540.686 360.92 539.342 359.984 538.046 358.832V375.68H527.174ZM541.646 355.448C542.558 355.448 543.23 355.184 543.662 354.656C544.142 354.08 544.478 353.336 544.67 352.424C544.862 351.512 544.958 350.504 544.958 349.4V331.976C544.958 330.968 544.862 330.056 544.67 329.24C544.478 328.424 544.142 327.776 543.662 327.296C543.182 326.768 542.534 326.504 541.718 326.504C541.046 326.504 540.398 326.672 539.774 327.008C539.15 327.296 538.574 327.68 538.046 328.16V354.224C538.622 354.608 539.198 354.92 539.774 355.16C540.35 355.352 540.974 355.448 541.646 355.448ZM562.683 362V303.68H573.483V324.2C575.019 322.712 576.627 321.584 578.307 320.816C579.987 320.048 581.811 319.664 583.779 319.664C585.459 319.664 586.827 320.096 587.883 320.96C588.987 321.824 589.803 322.976 590.331 324.416C590.859 325.808 591.123 327.392 591.123 329.168V362H580.251V330.968C580.251 329.816 580.083 328.952 579.747 328.376C579.411 327.8 578.739 327.512 577.731 327.512C577.155 327.512 576.483 327.68 575.715 328.016C574.995 328.304 574.251 328.712 573.483 329.24V362H562.683ZM598.404 362V320.384H609.276V362H598.404ZM598.332 313.544V305.408H609.276V313.544H598.332ZM629.784 362.72C626.712 362.72 624.144 362.144 622.08 360.992C620.016 359.792 618.456 358.112 617.4 355.952C616.392 353.792 615.888 351.224 615.888 348.248V334.208C615.888 331.088 616.392 328.472 617.4 326.36C618.456 324.2 620.016 322.544 622.08 321.392C624.144 320.24 626.712 319.664 629.784 319.664C632.76 319.664 635.256 320.144 637.272 321.104C639.288 322.016 640.776 323.408 641.736 325.28C642.744 327.152 643.248 329.504 643.248 332.336V336.296H632.88V332.048C632.88 330.8 632.76 329.84 632.52 329.168C632.328 328.448 631.992 327.944 631.512 327.656C631.08 327.368 630.504 327.224 629.784 327.224C629.064 327.224 628.488 327.416 628.056 327.8C627.624 328.136 627.312 328.736 627.12 329.6C626.928 330.416 626.832 331.568 626.832 333.056V349.4C626.832 351.656 627.072 353.192 627.552 354.008C628.08 354.776 628.848 355.16 629.856 355.16C630.624 355.16 631.224 354.992 631.656 354.656C632.088 354.32 632.4 353.792 632.592 353.072C632.784 352.352 632.88 351.44 632.88 350.336V345.296H643.248V349.832C643.248 352.616 642.744 354.992 641.736 356.96C640.728 358.88 639.216 360.32 637.2 361.28C635.184 362.24 632.712 362.72 629.784 362.72ZM271.392 469V410.68H289.896C293.4 410.68 296.256 411.352 298.464 412.696C300.672 413.992 302.304 415.888 303.36 418.384C304.464 420.88 305.016 423.904 305.016 427.456C305.016 431.632 304.296 434.896 302.856 437.248C301.464 439.6 299.544 441.28 297.096 442.288C294.648 443.248 291.84 443.728 288.672 443.728H283.272V469H271.392ZM283.272 435.376H287.448C289.176 435.376 290.496 435.112 291.408 434.584C292.368 434.008 293.016 433.12 293.352 431.92C293.688 430.72 293.856 429.184 293.856 427.312C293.856 425.536 293.712 424.048 293.424 422.848C293.184 421.648 292.608 420.712 291.696 420.04C290.784 419.368 289.344 419.032 287.376 419.032H283.272V435.376ZM310.615 469V427.384H321.487V434.08C322.879 431.632 324.247 429.832 325.591 428.68C326.983 427.48 328.615 426.88 330.487 426.88C330.823 426.88 331.111 426.904 331.351 426.952C331.639 426.952 331.903 427 332.143 427.096V438.04C331.615 437.8 331.015 437.608 330.343 437.464C329.671 437.272 328.975 437.176 328.255 437.176C326.911 437.176 325.687 437.536 324.583 438.256C323.479 438.928 322.447 439.912 321.487 441.208V469H310.615ZM350.295 469.72C347.319 469.72 344.775 469.192 342.663 468.136C340.551 467.032 338.943 465.448 337.839 463.384C336.783 461.32 336.255 458.752 336.255 455.68V440.704C336.255 437.632 336.783 435.064 337.839 433C338.943 430.936 340.551 429.376 342.663 428.32C344.775 427.216 347.319 426.664 350.295 426.664C353.271 426.664 355.815 427.216 357.927 428.32C360.039 429.376 361.647 430.936 362.751 433C363.855 435.064 364.407 437.632 364.407 440.704V455.68C364.407 458.752 363.855 461.32 362.751 463.384C361.647 465.448 360.039 467.032 357.927 468.136C355.815 469.192 353.271 469.72 350.295 469.72ZM350.367 462.376C351.279 462.376 351.975 462.136 352.455 461.656C352.935 461.128 353.247 460.432 353.391 459.568C353.535 458.656 353.607 457.624 353.607 456.472V439.984C353.607 438.784 353.535 437.752 353.391 436.888C353.247 436.024 352.935 435.328 352.455 434.8C351.975 434.272 351.279 434.008 350.367 434.008C349.455 434.008 348.759 434.272 348.279 434.8C347.799 435.328 347.463 436.024 347.271 436.888C347.127 437.752 347.055 438.784 347.055 439.984V456.472C347.055 457.624 347.127 458.656 347.271 459.568C347.463 460.432 347.799 461.128 348.279 461.656C348.759 462.136 349.455 462.376 350.367 462.376ZM372.234 481.456C371.226 481.456 370.218 481.384 369.21 481.24C368.25 481.096 367.338 480.88 366.474 480.592V472.816C366.762 472.864 367.098 472.912 367.482 472.96C367.866 473.008 368.226 473.032 368.562 473.032C369.33 473.032 369.954 472.888 370.434 472.6C370.914 472.36 371.274 471.952 371.514 471.376C371.802 470.8 371.946 470.08 371.946 469.216V427.384H382.818V470.512C382.818 473.776 381.906 476.416 380.082 478.432C378.306 480.448 375.69 481.456 372.234 481.456ZM371.946 420.544V412.408H382.818V420.544H371.946ZM403.309 469.72C400.237 469.72 397.669 469.168 395.605 468.064C393.541 466.912 391.981 465.256 390.925 463.096C389.869 460.888 389.341 458.248 389.341 455.176V441.208C389.341 438.04 389.869 435.4 390.925 433.288C391.981 431.128 393.565 429.496 395.677 428.392C397.789 427.24 400.333 426.664 403.309 426.664C406.477 426.664 409.045 427.24 411.013 428.392C412.981 429.544 414.421 431.224 415.333 433.432C416.293 435.64 416.773 438.328 416.773 441.496V448.768H400.069V456.832C400.069 458.032 400.189 459.016 400.429 459.784C400.717 460.552 401.101 461.104 401.581 461.44C402.061 461.728 402.661 461.872 403.381 461.872C404.053 461.872 404.629 461.728 405.109 461.44C405.637 461.104 406.021 460.6 406.261 459.928C406.501 459.256 406.621 458.368 406.621 457.264V453.304H416.701V456.76C416.701 460.984 415.549 464.2 413.245 466.408C410.941 468.616 407.629 469.72 403.309 469.72ZM400.069 443.584H406.621V439.48C406.621 438.28 406.501 437.32 406.261 436.6C406.021 435.832 405.637 435.304 405.109 435.016C404.629 434.68 404.005 434.512 403.237 434.512C402.517 434.512 401.917 434.68 401.437 435.016C401.005 435.352 400.669 435.952 400.429 436.816C400.189 437.632 400.069 438.808 400.069 440.344V443.584ZM436.354 469.72C433.282 469.72 430.714 469.144 428.65 467.992C426.586 466.792 425.026 465.112 423.97 462.952C422.962 460.792 422.458 458.224 422.458 455.248V441.208C422.458 438.088 422.962 435.472 423.97 433.36C425.026 431.2 426.586 429.544 428.65 428.392C430.714 427.24 433.282 426.664 436.354 426.664C439.33 426.664 441.826 427.144 443.842 428.104C445.858 429.016 447.346 430.408 448.306 432.28C449.314 434.152 449.818 436.504 449.818 439.336V443.296H439.45V439.048C439.45 437.8 439.33 436.84 439.09 436.168C438.898 435.448 438.562 434.944 438.082 434.656C437.65 434.368 437.074 434.224 436.354 434.224C435.634 434.224 435.058 434.416 434.626 434.8C434.194 435.136 433.882 435.736 433.69 436.6C433.498 437.416 433.402 438.568 433.402 440.056V456.4C433.402 458.656 433.642 460.192 434.122 461.008C434.65 461.776 435.418 462.16 436.426 462.16C437.194 462.16 437.794 461.992 438.226 461.656C438.658 461.32 438.97 460.792 439.162 460.072C439.354 459.352 439.45 458.44 439.45 457.336V452.296H449.818V456.832C449.818 459.616 449.314 461.992 448.306 463.96C447.298 465.88 445.786 467.32 443.77 468.28C441.754 469.24 439.282 469.72 436.354 469.72ZM468.614 469.432C465.734 469.432 463.478 469 461.846 468.136C460.214 467.224 459.086 465.928 458.462 464.248C457.838 462.568 457.526 460.528 457.526 458.128V434.512H453.422V427.384H457.526V414.784H468.542V427.384H474.59V434.512H468.542V457.12C468.542 458.416 468.854 459.352 469.478 459.928C470.15 460.456 471.062 460.72 472.214 460.72C472.79 460.72 473.342 460.696 473.87 460.648C474.398 460.552 474.878 460.48 475.31 460.432V468.928C474.638 469.024 473.678 469.12 472.43 469.216C471.182 469.36 469.91 469.432 468.614 469.432Z" fill="black"/>
<rect y="323" width="111" height="303" fill="#D53838" fill-opacity="0.2"/>
<rect x="135" y="323" width="108" height="303" fill="#D53838"/>
<rect x="135" width="108" height="303" fill="#14519C" fill-opacity="0.2"/>
<rect x="1" width="109" height="303" fill="#14519C"/>
<path d="M2 197.5L66 108L83 140L110 108" stroke="white" stroke-width="4"/>
<path d="M135 390L199 479.5L216 447.5L243 479.5" stroke="white" stroke-width="4"/>
</svg>
