<svg width="704" height="4938" viewBox="0 0 704 4938" fill="none" xmlns="http://www.w3.org/2000/svg">
<path d="M616 2.5C528.833 27.6667 360.8 109.3 386 234.5C417.5 391 687 397.5 693 497.5C699 597.5 573.5 860.5 329.5 860.5C85.5001 860.5 -96 1105 98 1205C292 1305 616 1274 616 1418C616 1562 273 1511.5 242 1630.5C211 1749.5 442.5 1780.5 442.5 1881C442.5 1981.5 492.5 2100.5 386 2150.5C279.5 2200.5 -133.5 2388.5 98 2532.5C329.5 2676.5 770 2796 693 2983.5C616 3171 417 2795.5 329.5 2939.5C242 3083.5 -134 3034 54 3259C242 3484 592.5 3371 517.5 3484C442.5 3597 342 3653.5 242 3691C142 3728.5 98 3710 242 3941.5C357.2 4126.7 348.333 4682.33 329.5 4937" stroke="black" stroke-width="4"/>
<path d="M616 2.5C528.833 27.6667 360.8 109.3 386 234.5C417.5 391 687 397.5 693 497.5C699 597.5 573.5 860.5 329.5 860.5C85.5001 860.5 -96 1105 98 1205C292 1305 616 1274 616 1418C616 1562 273 1511.5 242 1630.5C211 1749.5 442.5 1780.5 442.5 1881C442.5 1981.5 492.5 2100.5 386 2150.5C279.5 2200.5 -133.5 2388.5 98 2532.5C329.5 2676.5 770 2796 693 2983.5C616 3171 417 2795.5 329.5 2939.5C242 3083.5 -134 3034 54 3259C242 3484 592.5 3371 517.5 3484C442.5 3597 342 3653.5 242 3691C142 3728.5 98 3710 242 3941.5C357.2 4126.7 348.333 4682.33 329.5 4937" stroke="black" stroke-opacity="0.2" stroke-width="4"/>
<path d="M616 2.5C528.833 27.6667 360.8 109.3 386 234.5C417.5 391 687 397.5 693 497.5C699 597.5 573.5 860.5 329.5 860.5C85.5001 860.5 -96 1105 98 1205C292 1305 616 1274 616 1418C616 1562 273 1511.5 242 1630.5C211 1749.5 442.5 1780.5 442.5 1881C442.5 1981.5 492.5 2100.5 386 2150.5C279.5 2200.5 -133.5 2388.5 98 2532.5C329.5 2676.5 770 2796 693 2983.5C616 3171 417 2795.5 329.5 2939.5C242 3083.5 -134 3034 54 3259C242 3484 592.5 3371 517.5 3484C442.5 3597 342 3653.5 242 3691C142 3728.5 98 3710 242 3941.5C357.2 4126.7 348.333 4682.33 329.5 4937" stroke="black" stroke-opacity="0.2" stroke-width="4"/>
</svg>
